<?xml version="1.0" encoding="UTF-8"?>
<svg version="1.1" viewBox="0 0 1024 1024" width="1024" height="1024" xmlns="http://www.w3.org/2000/svg">
<path transform="translate(0)" d="m0 0h1024v1024h-1024z" fill="#171A29"/>
<path transform="translate(512,214)" d="m0 0h1l7 49 12 86 4 28v9l13 1 163 21 4 2-1 1-40 5-98 13-32 4h-8l-2 18-10 72-7 48-5 35h-2l-8-55-8-57-8-58v-3l-16-1-71-9-91-12-2-2 20-3 99-13 56-7 5-1 5-37 7-48 11-80z" fill="#333844"/>
<path transform="translate(512,295)" d="m0 0h1l6 65 4 35v5l16 1 64 6 25 2v1l-28 3-52 5-25 2-1 14-7 66-2 22-2 1-6-63-4-34v-6l-14-1-75-7-14-1-4-2 79-7 20-2h9v-14l8-75z" fill="#171A29"/>
<path transform="translate(356,686)" d="m0 0h15l11 4 6 5 5 9v13l-4 8-7 6-7 3-7 1h-9l-12-3-8-6-4-7-1-4v-11l4-8 7-6 6-3z" fill="#333844"/>
<path transform="translate(479,439)" d="m0 0 1 2-5 9-9 11 2 12 8 30 1 13-1 5h-2l-6-10-3-17-5-25h-2l-29 29-7 8-12 11-15 10-4 1 2-5 8-12 11-12 17-16 22-22 1-2h-7l-37-6-10-5-1-3 13-1 26 6 17 4 4 1 11-9z" fill="#333844"/>
<path transform="translate(631,291)" d="m0 0 2 1-10 16-11 12-8 8-8 7-24 24 45 8 11 5-1 2-5 1h-9l-45-10-4 2-17 12-4 1 1-5 9-12 5-6-3-17-7-28v-12l2-2 6 9 3 16 4 23 2 5 47-47 17-12z" fill="#333844"/>
<path transform="translate(391,290)" d="m0 0 4 2 13 9 12 11 40 40 7-41 4-9 4-4 2 5v8l-8 29-3 15v3l10 12 5 8v2l-4-1-11-7-8-7-20 4-26 6h-10l-5-1 1-3 8-4 30-5 16-3-31-31-8-7-9-9-10-15-3-5z" fill="#333844"/>
<path transform="translate(592,687)" d="m0 0h36l7 2 5 5 2 4v9l-4 6-7 4 9 11 4 4v2h-14l-10-13-2-3-15-1 1 3v13l-1 1h-10l-1-1z" fill="#333844"/>
<path transform="translate(544,440)" d="m0 0 6 2 16 12 17-3 25-6h19v2l-6 4-12 3-32 5h-6v2l4 2 31 31 8 7 10 11 9 14v2l-6-2-14-10-21-21-7-8-14-14-6-5-2 6-6 34-4 9-4 4-1-1v-14l4-16 6-25-1-5-10-13-3-5z" fill="#333844"/>
<path transform="translate(253,687)" d="m0 0h37l8 4 4 5 1 9-3 7-5 4-6 2h-25v16h-11z" fill="#333844"/>
<path transform="translate(526,687)" d="m0 0h12l8 16 15 28 1 3h-12l-5-9h-28l-5 9h-12l2-5 15-27 8-14z" fill="#333844"/>
<path transform="translate(739,686)" d="m0 0h16l13 4 2 1-2 6-4 2-9-3h-16l-3 2v4l7 2 20 3 6 4 3 5v7l-3 6-6 4-10 2h-11l-16-4-4-2 2-5 2-3 5 1 5 2 7 1h12l5-3-1-5-23-4-8-4-3-3-1-9 3-5 5-4z" fill="#333844"/>
<path transform="translate(357,695)" d="m0 0h13l6 3 5 6 1 8-3 8-5 4-8 2-10-1-7-4-3-4-1-8 2-7 5-5z" fill="#171A29"/>
<path transform="translate(428,687)" d="m0 0h12v38h32v9h-43l-1-1z" fill="#333844"/>
<path transform="translate(677,687)" d="m0 0h11l1 1v45l-1 1h-10l-1-1z" fill="#333844"/>
<path transform="translate(264,696)" d="m0 0h23l5 5-2 6-2 2-4 1h-12l-8-1z" fill="#171A29"/>
<path transform="translate(603,696)" d="m0 0h24l3 2 1 5-3 5-3 1h-21l-1-2z" fill="#171A29"/>
<path transform="translate(531,697)" d="m0 0 2 3 7 13v2h-18l8-16z" fill="#171A29"/>
</svg>
