<?xml version="1.0" encoding="UTF-8"?>
<svg id="Layer_2" data-name="Layer 2" xmlns="http://www.w3.org/2000/svg" viewBox="0 0 28.23 25">
  <defs>
    <style>
      .cls-1 {
        fill: #000000;
        fill-rule: evenodd;
      }
    </style>
  </defs>
  <g id="Layer_2-2" data-name="Layer 2">
    <path class="cls-1" d="M9.22,6.7c.2,3.8,2.7,6.5,4.5,8.5-1.3-2.6-2.3-7-1-10.2-.4,4,.4,7.6,1.8,10.3.5-2.7,1.1-5.7.7-8.4s-2.2-4.5-2.7-6.9c-1.6,1.5-3.5,3.6-3.3,6.7M23.92,4.5c-8.4.2-9.8,9.1-7.3,16.1,3-1.6,5.1-3.9,6.9-6.8,1.5-2.4,2.4-5.6,4.1-7.8.3-.3.7-.6.6-.9-1.4-.3-2.7-.6-4.3-.6M8.22,13.4c-3.3-.2-6,1.7-7.7,3.1-.2.2-.6.5-.5.6,3,1.1,5.1,3.4,7.7,5s5.6,2.9,9.7,2.9c-1.1-5.1-3.3-11.2-9.3-11.6"/>
  </g>
</svg>