<?xml version="1.0" encoding="UTF-8"?>
<svg id="Layer_2" data-name="Layer 2" xmlns="http://www.w3.org/2000/svg" viewBox="0 0 73.13 35.6">
  <defs>
    <style>
      .cls-1 {
        fill: #ffffff;
        fill-rule: evenodd;
      }
    </style>
  </defs>
  <g id="Layer_2-2" data-name="Layer 2">
    <path class="cls-1" d="M64.4,0c.2,9.3,0,18.9,0,28.3-2.8.1-5.2,0-6.6-1.3-2.2-2.1-2.5-8.8-.7-11.8,1-1.8,2.9-2.4,5.4-2.3V.9C63,.4,63.7.3,64.4,0M59.5,15.6c-1.6,1.3-1.8,6.9-.6,9.1.6,1.1,1.9,1.6,3.5,1.5v-11.2c-1.1,0-2.2,0-2.9.6"/>
    <path class="cls-1" d="M32.4,2.5c-1.4,0-2.1.6-2.3,1.9-.2,2.3.2,6.5,0,8.6h2.1v2.1h-2.1c-.2,6.4,0,13.1,0,19.7-.7.3-1.3.6-2.1.8V15.2c-.4-.1-1,0-1.5,0,.2-.7.5-1.3.7-2.1.2-.1.5,0,.8,0,.4-5.2-1.7-13,4.4-12.6"/>
    <path class="cls-1" d="M37.5,12.6c3.9-.4,5,4.2,5.1,7.9,0,3.4-.8,6.8-3,7.8-.6.3-1.4.4-2.3.3-4.8-1-5.2-12.9-1.4-15.5.3-.2.9-.4,1.6-.5M36,17c-.7,2.7-.7,9.4,1.8,9.7,2.3.3,2.6-3.1,2.6-6s-.7-6.4-2.7-6c-1,.2-1.4,1.2-1.7,2.3"/>
    <path class="cls-1" d="M73,23.5c.08.31.18,1.21.1,1.8-.6,2.5-2.9,3.5-6.2,3.2.2-.7.3-1.5.6-2,1.4,0,3-.1,3.3-1.2.5-1.6-.9-3-1.6-3.8-.7-.9-1.6-2.1-2-3.5-.8-3.1,1.9-6,5.7-5-.2.7-.3,1.5-.7,2.1-1.9-.3-3.2.5-2.9,2.2.2,1.1,1.2,2.1,1.9,3,.8,1.1,1.5,2.1,1.8,3.2"/>
    <path class="cls-1" d="M19.6,22.8c.2,1.6.5,3.8,1.9,4,1.2.2,1.9-.7,2.8-1.2.2.6.3,1.2.6,1.7-1.2,1.5-3.8,1.9-5.1.8-3-2.4-3.2-13.3.5-15.1.6-.3,1.5-.3,2.1,0,2.3,1,2.4,4.4,2.6,7.6M21.5,14.8c-2-.4-1.9,4.1-2.1,5.8,1.2-.4,2.3-.9,3.5-1.3,0-1.5-.2-4.3-1.4-4.5"/>
    <path class="cls-1" d="M6.7,12.7c-1.3,4.6-2.8,8.9-4.1,13.4h4.2v2.1H0c1.3-4.6,2.8-9,4.1-13.5H.4c.2-.7.4-1.5.7-2.1h5.6v.1Z"/>
    <path class="cls-1" d="M48.9,12.6c3.9-.4,5,4.2,5.1,7.9,0,3.4-.8,6.8-3,7.8-.6.3-1.4.4-2.3.3-4.8-1-5.2-12.9-1.4-15.5.3-.2.9-.4,1.6-.5M47.4,17c-.7,2.7-.7,9.4,1.8,9.7,2.3.3,2.6-3.1,2.6-6s-.7-6.4-2.7-6c-1,.2-1.4,1.2-1.7,2.3"/>
    <path class="cls-1" d="M10.1,22.7c.2,1.6.5,3.8,1.9,4,1.2.2,1.9-.7,2.8-1.2.2.6.3,1.2.6,1.7-1.2,1.5-3.8,1.9-5.1.8-3-2.4-3.2-13.3.5-15.1.6-.3,1.5-.3,2.1,0,2.3,1,2.4,4.4,2.6,7.6M12,14.7c-2-.4-1.9,4.1-2.1,5.8,1.2-.4,2.3-.9,3.5-1.3,0-1.5-.2-4.3-1.4-4.5"/>
  </g>
</svg>