<?xml version="1.0" encoding="UTF-8"?>
<svg id="Layer_2" data-name="Layer 2" xmlns="http://www.w3.org/2000/svg" viewBox="0 0 35.15 35.15">
  <defs>
    <style>
      .cls-1 {
        fill: #fff;
        fill-rule: evenodd;
      }

      .cls-2 {
        fill: #67953f;
      }
    </style>
  </defs>
  <g id="Layer_2-2" data-name="Layer 2">
    <g>
      <circle class="cls-2" cx="17.58" cy="17.58" r="17.58"/>
      <path class="cls-1" d="M12.42,11.83c.2,3.78,2.73,6.52,4.52,8.48-1.34-2.61-2.28-7.02-1-10.22-.37,4.04.42,7.63,1.79,10.35.52-2.7,1.08-5.71.73-8.42-.36-2.74-2.2-4.51-2.73-6.92-1.64,1.49-3.49,3.6-3.33,6.73M27.12,9.63c-8.39.16-9.82,9.08-7.32,16.05,2.95-1.59,5.1-3.93,6.92-6.8,1.52-2.39,2.44-5.63,4.12-7.76.26-.33.65-.64.6-.91-1.37-.33-2.72-.61-4.32-.59M11.42,18.5c-3.3-.22-6,1.67-7.65,3.11-.2.18-.6.52-.47.64,2.99,1.15,5.07,3.41,7.72,4.98,2.65,1.58,5.57,2.9,9.71,2.92-1.11-5.08-3.31-11.23-9.31-11.64"/>
    </g>
  </g>
</svg>