<?xml version="1.0" encoding="UTF-8"?>
<svg id="Layer_2" data-name="Layer 2" xmlns="http://www.w3.org/2000/svg" viewBox="0 0 112.26 38.39">
  <defs>
    <style>
      .cls-1 {
        fill: #fff;
      }

      .cls-1, .cls-2 {
        fill-rule: evenodd;
      }

      .cls-3 {
        fill: #67953f;
      }

      .cls-2 {
        fill: #00447c;
      }
    </style>
  </defs>
  <path class="cls-2" d="M103.29,2.81c.16,9.32.02,18.92.07,28.35-2.83.1-5.18.03-6.58-1.32-2.2-2.13-2.54-8.78-.73-11.79,1.04-1.75,2.87-2.44,5.38-2.32V3.74c.48-.45,1.25-.61,1.86-.93M98.5,18.44c-1.61,1.34-1.89,6.95-.66,9.14.61,1.09,1.93,1.57,3.52,1.46v-11.2c-1.12-.08-2.23.08-2.86.6"/>
  <path class="cls-2" d="M71.3,3.21v2.06c-1.38-.05-2.12.57-2.26,1.92-.24,2.35.19,6.46,0,8.61h2.12v2.12h-2.06c-.16,6.42-.02,13.14-.07,19.68-.71.27-1.33.62-2.13.8v-20.41c-.37-.15-1.04-.02-1.53-.06.24-.69.54-1.32.73-2.06.16-.13.54-.04.8-.07.41-5.24-1.72-13.03,4.39-12.59"/>
  <path class="cls-2" d="M76.42,15.46c3.88-.43,4.98,4.15,5.05,7.95.07,3.43-.79,6.76-2.99,7.82-.63.3-1.39.44-2.26.26-4.83-.98-5.18-12.94-1.4-15.5.35-.24.89-.45,1.6-.53M74.89,19.84c-.69,2.72-.67,9.36,1.79,9.67,2.28.29,2.64-3.12,2.59-6.03-.04-2.81-.7-6.35-2.73-5.96-1.04.2-1.38,1.23-1.66,2.32"/>
  <path class="cls-2" d="M87.73,15.46c.55-.07,1.5.04,2.06.33,3.87,2,4.36,13.64-.06,15.5-.72.3-1.73.45-2.73.07-4.14-1.56-4.39-12.35-1.2-15.1.43-.37,1.1-.7,1.93-.8M85.86,24.14c.09,2.25.54,5.17,2.2,5.37,2.15.25,2.59-3.02,2.59-5.5,0-2.35-.45-6.98-2.79-6.49-1.84.38-2.1,3.84-1.99,6.62"/>
  <path class="cls-2" d="M112.13,26.26c.1.29.23,1.04,0,1.85-.57,2.51-2.95,3.54-6.18,3.18.22-.66.27-1.5.6-2.05,1.43.06,2.97-.1,3.32-1.19.53-1.65-.88-2.95-1.6-3.84-.73-.92-1.64-2.14-2-3.45-.85-3.12,1.95-5.97,5.72-5.04-.18.73-.33,1.49-.67,2.06-1.89-.32-3.21.49-2.93,2.18.18,1.13,1.19,2.07,1.93,3.05.83,1.1,1.47,2.15,1.79,3.25"/>
  <path class="cls-2" d="M54.41,23.35c-1.78.79-3.58,1.56-5.38,2.32.31,1.54.49,3.71,1.92,3.98,1.21.23,1.91-.74,2.79-1.19.2.6.37,1.22.6,1.79-1.45,1.62-4.28,1.87-5.65.2-2.45-2.98-2.28-11.57.27-14.04.7-.68,1.92-1.06,2.99-.53,2.11,1.04,2.28,4.51,2.46,7.49M50.22,17.78c-1.18.69-1.14,3.99-1.26,5.63,1.19-.38,2.26-.88,3.46-1.26.2-1.57-.49-5.37-2.19-4.37"/>
  <path class="cls-2" d="M63.79,23.41c-1.84.66-3.48,1.52-5.32,2.19.19,1.63.46,3.78,1.86,4.04,1.2.23,1.92-.73,2.79-1.19.21.56.34,1.21.6,1.72-1.21,1.55-3.75,1.87-5.12.79-3-2.35-3.21-13.29.46-15.1.6-.29,1.5-.34,2.13-.07,2.31.99,2.38,4.4,2.6,7.62M60.4,17.65c-2.01-.41-1.93,4.09-2.06,5.76,1.19-.38,2.27-.88,3.46-1.26,0-1.55-.18-4.26-1.4-4.51"/>
  <path class="cls-2" d="M45.57,15.51c-1.31,4.55-2.78,8.94-4.12,13.45h4.25v2.12h-6.85c1.28-4.58,2.75-8.97,4.12-13.45h-3.72c.23-.72.44-1.46.73-2.12h5.59Z"/>
  <g>
    <circle class="cls-3" cx="18.33" cy="17.58" r="17.58"/>
    <path class="cls-1" d="M5.51,5.68,0,19.2,13.17,11.83c.2,3.78,2.73,6.52,4.52,8.48-1.34-2.61-2.28-7.02-1-10.22-.37,4.04.42,7.63,1.79,10.35.52-2.7,1.08-5.71.73-8.42-.36-2.74-2.2-4.51-2.73-6.92-1.64,1.49-3.49,3.6-3.33,6.73M27.86,9.63c-8.39.16-9.82,9.08-7.32,16.05,2.95-1.59,5.1-3.93,6.92-6.8,1.52-2.39,2.44-5.63,4.12-7.76.26-.33.65-.64.6-.91-1.37-.33-2.72-.61-4.32-.59M12.17,18.5c-3.3-.22-6,1.67-7.65,3.11-.2.18-.6.52-.47.64,2.99,1.15,5.07,3.41,7.72,4.98,2.65,1.58,5.57,2.9,9.71,2.92-1.11-5.08-3.31-11.23-9.31-11.64"/>
  </g>
</svg>