<svg version="1.2" xmlns="http://www.w3.org/2000/svg" viewBox="0 -1.1368683772161603e-13 611.999999999999 792.0000000000001" width="612" height="793">
	<style>
		.s0 { fill: #00447b } 
		.s1 { fill: #66953f } 
	</style>
	<g id="Layer 1">
		<path id="&lt;Compound Path&gt;" fill-rule="evenodd" class="s0" d="m349.17 392.77c0.16 9.32 0.03 18.92 0.07 28.35-2.83 0.1-5.18 0.03-6.58-1.32-2.2-2.14-2.54-8.78-0.73-11.8 1.04-1.74 2.87-2.43 5.38-2.32v-11.99c0.48-0.44 1.25-0.6 1.86-0.92zm-4.79 15.63c-1.6 1.34-1.89 6.95-0.66 9.14 0.61 1.1 1.93 1.57 3.52 1.46v-11.2c-1.12-0.07-2.23 0.08-2.86 0.6z"/>
		<path id="&lt;Path&gt;" fill-rule="evenodd" class="s0" d="m317.19 393.16v2.06c-1.38-0.05-2.12 0.56-2.26 1.92-0.24 2.35 0.19 6.46 0 8.61h2.12v2.12h-2.05c-0.16 6.43-0.03 13.14-0.07 19.68-0.71 0.27-1.33 0.62-2.13 0.79v-20.41c-0.38-0.15-1.04-0.02-1.53-0.06 0.24-0.69 0.54-1.32 0.73-2.05 0.16-0.13 0.54-0.04 0.8-0.07 0.41-5.24-1.73-13.03 4.39-12.59z"/>
		<path id="&lt;Compound Path&gt;" fill-rule="evenodd" class="s0" d="m322.31 405.42c3.88-0.43 4.98 4.15 5.05 7.95 0.07 3.43-0.79 6.76-2.99 7.82-0.63 0.3-1.39 0.44-2.26 0.26-4.83-0.97-5.18-12.93-1.4-15.5 0.35-0.24 0.89-0.45 1.6-0.53zm-1.53 4.37c-0.69 2.72-0.66 9.37 1.8 9.68 2.28 0.28 2.63-3.12 2.59-6.03-0.04-2.81-0.7-6.35-2.73-5.97-1.04 0.2-1.38 1.23-1.66 2.32z"/>
		<path id="&lt;Compound Path&gt;" fill-rule="evenodd" class="s0" d="m333.61 405.42c0.56-0.07 1.5 0.04 2.06 0.33 3.87 2 4.36 13.64-0.06 15.5-0.73 0.31-1.73 0.45-2.73 0.07-4.14-1.56-4.39-12.35-1.19-15.1 0.43-0.38 1.09-0.7 1.92-0.8zm-1.86 8.68c0.09 2.25 0.54 5.17 2.2 5.37 2.14 0.24 2.59-3.02 2.59-5.5 0-2.35-0.45-6.98-2.8-6.5-1.83 0.38-2.1 3.84-1.99 6.63z"/>
		<path id="&lt;Path&gt;" fill-rule="evenodd" class="s0" d="m358.02 416.22c0.09 0.29 0.23 1.04 0 1.85-0.57 2.52-2.95 3.54-6.19 3.18 0.22-0.66 0.27-1.5 0.6-2.05 1.43 0.06 2.97-0.1 3.33-1.19 0.53-1.65-0.88-2.95-1.6-3.84-0.73-0.92-1.64-2.14-2-3.45-0.85-3.12 1.95-5.97 5.73-5.04-0.19 0.73-0.33 1.49-0.67 2.06-1.89-0.32-3.21 0.49-2.93 2.18 0.19 1.14 1.19 2.07 1.93 3.05 0.83 1.11 1.47 2.15 1.8 3.25z"/>
		<path id="&lt;Compound Path&gt;" fill-rule="evenodd" class="s0" d="m300.3 413.3q-2.68 1.19-5.39 2.32c0.32 1.54 0.49 3.71 1.93 3.98 1.21 0.22 1.91-0.75 2.79-1.19 0.2 0.59 0.37 1.22 0.6 1.78-1.45 1.63-4.27 1.87-5.65 0.2-2.45-2.98-2.28-11.56 0.27-14.04 0.69-0.68 1.91-1.06 2.99-0.53 2.1 1.04 2.28 4.51 2.46 7.48zm-4.19-5.56c-1.19 0.69-1.14 3.99-1.26 5.63 1.19-0.38 2.25-0.89 3.45-1.26 0.2-1.57-0.48-5.37-2.19-4.37z"/>
		<path id="&lt;Compound Path&gt;" fill-rule="evenodd" class="s0" d="m309.68 413.37c-1.84 0.66-3.48 1.52-5.33 2.19 0.19 1.62 0.46 3.77 1.87 4.04 1.19 0.22 1.92-0.74 2.79-1.19 0.21 0.55 0.34 1.2 0.6 1.72-1.22 1.55-3.75 1.87-5.12 0.79-3-2.35-3.21-13.29 0.46-15.1 0.6-0.3 1.5-0.34 2.13-0.07 2.31 0.99 2.38 4.4 2.6 7.62zm-3.4-5.76c-2-0.41-1.93 4.09-2.06 5.76 1.2-0.38 2.27-0.88 3.46-1.26 0-1.55-0.17-4.26-1.4-4.5z"/>
		<path id="&lt;Path&gt;" fill-rule="evenodd" class="s0" d="m291.45 405.46c-1.3 4.55-2.77 8.94-4.12 13.45h4.26v2.12h-6.85c1.28-4.58 2.75-8.97 4.12-13.45h-3.72c0.23-0.72 0.44-1.46 0.73-2.12z"/>
		<path id="&lt;Compound Path&gt;" fill-rule="evenodd" class="s1" d="m317.08 334h2.94c8.53 0.81 14.86 6.03 17.58 12.63 1.54 3.74 1.97 8.68 0.9 12.85-1.93 7.56-7.44 13-15.16 14.87-4.15 1.01-8.97 0.63-12.82-0.97-6.86-2.85-11.44-8.72-12.52-17.44v-2.92c0.35-5.06 2.85-9.91 5.96-13.01 3.2-3.19 7.82-5.6 13.12-6.01zm-4.15 13.38c0.23 4.39 3.1 7.57 5.13 9.84-1.52-3.03-2.59-8.16-1.13-11.87-0.41 4.69 0.48 8.85 2.04 12.02 0.59-3.13 1.22-6.64 0.83-9.77-0.41-3.19-2.5-5.24-3.09-8.04-1.86 1.74-3.96 4.19-3.78 7.82zm16.67-2.56c-9.51 0.19-11.13 10.56-8.29 18.63 3.35-1.85 5.78-4.56 7.84-7.88 1.72-2.78 2.77-6.55 4.68-9.02 0.29-0.39 0.74-0.74 0.68-1.05-1.56-0.38-3.08-0.71-4.91-0.68zm-17.8 10.3c-3.74-0.27-6.8 1.94-8.67 3.61-0.23 0.19-0.68 0.6-0.53 0.75 3.39 1.34 5.75 3.95 8.75 5.78 3.01 1.84 6.31 3.36 11.01 3.38-1.26-5.89-3.76-13.04-10.56-13.52z"/>
	</g>
</svg>