<?xml version="1.0" encoding="UTF-8"?>
<svg id="Layer_2" data-name="Layer 2" xmlns="http://www.w3.org/2000/svg" viewBox="0 0 112.13 38.4">
  <defs>
    <style>
      .cls-1 {
        fill: #ffffff;
      }

      .cls-2 {
        fill: #ffffff;
        fill-rule: evenodd;
      }
    </style>
  </defs>
  <path class="cls-2" d="M103.4,2.8c.2,9.3,0,18.9,0,28.3-2.8.1-5.2,0-6.6-1.3-2.2-2.1-2.5-8.8-.7-11.8,1-1.8,2.9-2.4,5.4-2.3V3.7c.5-.5,1.2-.6,1.9-.9M98.5,18.4c-1.6,1.3-1.8,6.9-.6,9.1.6,1.1,1.9,1.6,3.5,1.5v-11.2c-1.1,0-2.2,0-2.9.6"/>
  <path class="cls-2" d="M71.4,5.3c-1.4,0-2.1.6-2.3,1.9-.2,2.3.2,6.5,0,8.6h2.1v2.1h-2.1c-.2,6.4,0,13.1,0,19.7-.7.3-1.3.6-2.1.8v-20.4c-.4-.1-1,0-1.5,0,.2-.7.5-1.3.7-2.1.2-.1.5,0,.8,0,.4-5.2-1.7-13,4.4-12.6"/>
  <path class="cls-2" d="M76.5,15.4c3.9-.4,5,4.2,5.1,7.9,0,3.4-.8,6.8-3,7.8-.6.3-1.4.4-2.3.3-4.8-1-5.2-12.9-1.4-15.5.3-.2.9-.4,1.6-.5M75,19.8c-.7,2.7-.7,9.4,1.8,9.7,2.3.3,2.6-3.1,2.6-6s-.7-6.4-2.7-6c-1,.2-1.4,1.2-1.7,2.3"/>
  <path class="cls-2" d="M112,26.3c.08.31.18,1.21.1,1.8-.6,2.5-2.9,3.5-6.2,3.2.2-.7.3-1.5.6-2,1.4,0,3-.1,3.3-1.2.5-1.6-.9-3-1.6-3.8-.7-.9-1.6-2.1-2-3.5-.8-3.1,1.9-6,5.7-5-.2.7-.3,1.5-.7,2.1-1.9-.3-3.2.5-2.9,2.2.2,1.1,1.2,2.1,1.9,3,.8,1.1,1.5,2.1,1.8,3.2"/>
  <path class="cls-2" d="M58.6,25.6c.2,1.6.5,3.8,1.9,4,1.2.2,1.9-.7,2.8-1.2.2.6.3,1.2.6,1.7-1.2,1.5-3.8,1.9-5.1.8-3-2.4-3.2-13.3.5-15.1.6-.3,1.5-.3,2.1,0,2.3,1,2.4,4.4,2.6,7.6M60.5,17.6c-2-.4-1.9,4.1-2.1,5.8,1.2-.4,2.3-.9,3.5-1.3,0-1.5-.2-4.3-1.4-4.5"/>
  <path class="cls-2" d="M45.7,15.5c-1.3,4.6-2.8,8.9-4.1,13.4h4.2v2.1h-6.8c1.3-4.6,2.8-9,4.1-13.5h-3.7c.2-.7.4-1.5.7-2.1h5.6v.1Z"/>
  <path class="cls-2" d="M87.9,15.4c3.9-.4,5,4.2,5.1,7.9,0,3.4-.8,6.8-3,7.8-.6.3-1.4.4-2.3.3-4.8-1-5.2-12.9-1.4-15.5.3-.2.9-.4,1.6-.5M86.4,19.8c-.7,2.7-.7,9.4,1.8,9.7,2.3.3,2.6-3.1,2.6-6s-.7-6.4-2.7-6c-1,.2-1.4,1.2-1.7,2.3"/>
  <path class="cls-1" d="M17.6,0C7.9,0,0,7.9,0,17.6s7.9,17.6,17.6,17.6,17.6-7.9,17.6-17.6S27.3,0,17.6,0ZM15.7,5.1c.5,2.4,2.3,4.2,2.7,6.9.4,2.7-.2,5.7-.7,8.4-1.4-2.7-2.2-6.3-1.8-10.3-1.3,3.2-.3,7.6,1,10.2-1.8-2-4.3-4.7-4.5-8.5-.2-3.1,1.7-5.2,3.3-6.7ZM10.9,27.2c-2.6-1.6-4.7-3.9-7.7-5-.1,0,.3-.4.5-.6,1.7-1.4,4.4-3.3,7.6-3.1h.1c6,.4,8.2,6.5,9.3,11.6-4.1,0-7.1-1.3-9.7-2.9h-.1ZM30.8,11.1c-1.7,2.2-2.6,5.4-4.1,7.8-1.8,2.9-3.9,5.2-6.9,6.8-2.5-7-1.1-15.9,7.3-16.1,1.6,0,2.9.3,4.3.6,0,.3-.3.6-.6.9Z"/>
  <path class="cls-2" d="M49.1,25.5c.2,1.6.5,3.8,1.9,4,1.2.2,1.9-.7,2.8-1.2.2.6.3,1.2.6,1.7-1.2,1.5-3.8,1.9-5.1.8-3-2.4-3.2-13.3.5-15.1.6-.3,1.5-.3,2.1,0,2.3,1,2.4,4.4,2.6,7.6M51,17.5c-2-.4-1.9,4.1-2.1,5.8,1.2-.4,2.3-.9,3.5-1.3,0-1.5-.2-4.3-1.4-4.5"/>
</svg>