<?xml version="1.0" encoding="UTF-8"?>
<svg id="Layer_2" data-name="Layer 2" xmlns="http://www.w3.org/2000/svg" viewBox="0 0 35.2 35.2">
  <defs>
    <style>
      .cls-1 {
        fill: #000000;
      }
    </style>
  </defs>
  <g id="Layer_2-2" data-name="Layer 2">
    <path class="cls-1" d="M17.6,0C7.88,0,0,7.88,0,17.6s7.88,17.6,17.6,17.6,17.6-7.88,17.6-17.6S27.32,0,17.6,0ZM15.7,5.1c.5,2.4,2.3,4.2,2.7,6.9.4,2.7-.2,5.7-.7,8.4-1.4-2.7-2.2-6.3-1.8-10.3-1.3,3.2-.3,7.6,1,10.2-1.8-2-4.3-4.7-4.5-8.5-.2-3.1,1.7-5.2,3.3-6.7ZM10.9,27.2c-2.6-1.6-4.7-3.9-7.7-5-.1-.1.3-.4.5-.6,1.68-1.39,4.35-3.26,7.61-3.1,0,0,0,0-.01,0h.1s-.06,0-.09,0c5.99.41,8.19,6.5,9.29,11.6-4.1,0-7.1-1.3-9.7-2.9ZM30.8,11.1c-1.7,2.2-2.6,5.4-4.1,7.8-1.8,2.9-3.9,5.2-6.9,6.8-2.5-7-1.1-15.9,7.3-16.1,1.6,0,2.9.3,4.3.6.1.3-.3.6-.6.9Z"/>
  </g>
</svg>
