<?xml version="1.0" encoding="UTF-8"?>
<svg id="Layer_1" xmlns="http://www.w3.org/2000/svg" version="1.1" viewBox="0 0 331 160">
  <!-- Generator: Adobe Illustrator 30.4.0, SVG Export Plug-In . SVG Version: 2.1.4 Build 226)  -->
  <defs>
    <style>
      .st0 {
        fill: #00447b;
        fill-rule: evenodd;
      }
    </style>
  </defs>
  <path id="_x3C_Compound_Path_x3E_" class="st0" d="M290.03.13c.72,41.86.13,84.97.31,127.32-12.71.45-23.26.14-29.55-5.92-9.88-9.61-11.41-39.43-3.28-53,4.67-7.81,12.89-10.91,24.17-10.42V4.26c2.15-1.98,5.61-2.69,8.35-4.13h0ZM268.51,70.33c-7.18,6.02-8.48,31.21-2.97,41.04,2.75,4.94,8.67,7.05,15.82,6.56v-50.3c-5.03-.31-10.02.36-12.85,2.69h0Z"/>
  <path id="_x3C_Path_x3E_" class="st0" d="M146.4,1.88v9.25c-6.19-.23-9.52,2.51-10.15,8.62-1.08,10.55.86,29.01,0,38.66h9.53v9.53h-9.21c-.72,28.87-.13,59.01-.31,88.38-3.18,1.21-5.97,2.78-9.56,3.54v-91.66c-1.71-.67-4.67-.09-6.88-.26,1.08-3.11,2.42-5.93,3.28-9.21.72-.59,2.42-.17,3.6-.31,1.84-23.53-7.78-58.52,19.71-56.54h0Z"/>
  <path id="_x3C_Compound_Path_x3E_1" data-name="_x3C_Compound_Path_x3E_" class="st0" d="M169.4,56.94c17.42-1.93,22.37,18.63,22.68,35.7.31,15.4-3.55,30.36-13.43,35.12-2.83,1.35-6.25,1.98-10.16,1.17-21.68-4.36-23.26-58.07-6.28-69.61,1.57-1.08,4-2.02,7.18-2.38h0ZM162.53,76.56c-3.11,12.22-2.97,42.08,8.08,43.47,10.23,1.26,11.81-14.01,11.63-27.08-.17-12.61-3.14-28.52-12.26-26.81-4.67.9-6.2,5.53-7.45,10.42h0Z"/>
  <path id="_x3C_Compound_Path_x3E_2" data-name="_x3C_Compound_Path_x3E_" class="st0" d="M220.15,56.94c2.51-.31,6.74.17,9.25,1.48,17.38,8.98,19.59,61.26-.26,69.61-3.28,1.39-7.78,2.02-12.26.31-18.6-7.01-19.72-55.47-5.34-67.82,1.93-1.71,4.9-3.14,8.62-3.59h0ZM211.79,95.92c.4,10.1,2.42,23.22,9.88,24.12,9.61,1.08,11.63-13.56,11.63-24.7,0-10.55-2.02-31.34-12.58-29.19-8.21,1.71-9.43,17.25-8.93,29.78Z"/>
  <path id="_x3C_Path_x3E_1" data-name="_x3C_Path_x3E_" class="st0" d="M329.77,105.45c.4,1.3,1.03,4.67,0,8.3-2.55,11.32-13.24,15.9-27.8,14.28.99-2.97,1.22-6.74,2.69-9.2,6.42.26,13.34-.45,14.96-5.34,2.38-7.41-3.95-13.25-7.19-17.25-3.27-4.13-7.37-9.61-8.97-15.49-3.82-14.01,8.76-26.81,25.73-22.64-.86,3.28-1.49,6.69-3.01,9.25-8.49-1.43-14.42,2.2-13.16,9.79.86,5.12,5.34,9.3,8.67,13.7,3.73,4.99,6.6,9.66,8.08,14.6Z"/>
  <path id="_x3C_Compound_Path_x3E_3" data-name="_x3C_Compound_Path_x3E_" class="st0" d="M70.55,92.33c-8.02,3.56-16.1,7.04-24.21,10.43,1.44,6.91,2.2,16.65,8.67,17.87,5.44.99,8.58-3.37,12.53-5.34.89,2.65,1.66,5.48,2.69,8-6.52,7.32-19.17,8.4-25.38.9-11-13.38-10.24-51.92,1.22-63.06,3.1-3.05,8.57-4.76,13.43-2.38,9.43,4.67,10.23,20.26,11.05,33.59h0ZM51.74,67.36c-5.34,3.1-5.13,17.91-5.66,25.28,5.34-1.71,10.1-4,15.49-5.65.9-7.06-2.15-24.13-9.83-19.63h0Z"/>
  <path id="_x3C_Compound_Path_x3E_4" data-name="_x3C_Compound_Path_x3E_" class="st0" d="M112.68,92.64c-8.27,2.97-15.63,6.83-23.94,9.84.86,7.28,2.06,16.93,8.4,18.14,5.34.99,8.62-3.32,12.53-5.34.94,2.47,1.52,5.39,2.69,7.72-5.48,6.96-16.85,8.4-23,3.55-13.47-10.56-14.42-59.69,2.06-67.82,2.69-1.35,6.74-1.52,9.57-.31,10.37,4.44,10.69,19.76,11.68,34.22h0ZM97.41,66.77c-8.98-1.84-8.67,18.37-9.25,25.87,5.39-1.71,10.2-3.95,15.54-5.65,0-6.96-.76-19.14-6.29-20.22Z"/>
  <path id="_x3C_Path_x3E_2" data-name="_x3C_Path_x3E_" class="st0" d="M30.8,57.12c-5.83,20.43-12.44,40.15-18.5,60.41h19.13v9.52H.67c5.75-20.56,12.35-40.28,18.5-60.4H2.46c1.03-3.24,1.98-6.56,3.28-9.53h25.06Z"/>
</svg>