<?xml version="1.0" encoding="UTF-8"?>
<svg id="Layer_1" xmlns="http://www.w3.org/2000/svg" version="1.1" viewBox="0 0 160 160">
  <!-- Generator: Adobe Illustrator 30.4.0, SVG Export Plug-In . SVG Version: 2.1.4 Build 226)  -->
  <defs>
    <style>
      .st0 {
        fill: #66953f;
        fill-rule: evenodd;
      }
    </style>
  </defs>
  <circle cx="80" cy="80" r="80" fill="#fff"/>
  <path id="_x3C_Compound_Path_x3E_" class="st0" d="M74.29.35h11.45c33.21,3.16,57.86,23.48,68.45,49.18,6,14.56,7.67,33.8,3.5,50.04-7.51,29.43-28.97,50.62-59.03,57.9-16.16,3.93-34.93,2.45-49.92-3.77C22.04,142.6,4.2,119.74,0,85.78v-11.37c1.36-19.7,11.1-38.59,23.2-50.66C35.67,11.33,53.66,1.95,74.29.35h0ZM58.13,52.46c.9,17.09,12.07,29.47,19.98,38.31-5.92-11.8-10.09-31.77-4.4-46.22-1.59,18.26,1.87,34.46,7.95,46.8,2.29-12.18,4.75-25.85,3.23-38.04-1.6-12.42-9.74-20.4-12.04-31.31-7.24,6.78-15.42,16.32-14.72,30.45h0ZM123.04,42.48c-37.03.74-43.34,41.12-32.28,72.54,13.05-7.2,22.5-17.75,30.53-30.68,6.7-10.82,10.79-25.5,18.22-35.12,1.13-1.52,2.88-2.88,2.64-4.09-6.07-1.48-11.99-2.76-19.11-2.65h0ZM53.74,82.59c-14.57-1.05-26.48,7.55-33.76,14.06-.9.74-2.65,2.34-2.06,2.92,13.19,5.21,22.38,15.38,34.07,22.5,11.72,7.17,24.57,13.08,42.87,13.16-4.91-22.93-14.65-50.77-41.12-52.64h0Z"/>
</svg>